SeanUltraLight.ufo
<glyph name="exclam" format="1">
  <advance width="393"/>
  <unicode hex="0021"/>
  <outline>
    <contour>
      <point x="213" y="229" type="line"/>
      <point x="227" y="229" type="line"/>
      <point x="226" y="722" type="line"/>
      <point x="212" y="722" type="line"/>
    </contour>
    <contour>
      <point x="212" y="125" type="line"/>
      <point x="212" y="0" type="line"/>
      <point x="226" y="0" type="line"/>
      <point x="226" y="125" type="line"/>
    </contour>
  </outline>
</glyph>
<glyph name="quotedbl" format="1">
  <advance width="427"/>
  <unicode hex="0022"/>
  <outline>
    <contour>
      <point x="279" y="606" type="line"/>
      <point x="292" y="606" type="line"/>
      <point x="333" y="779" type="line"/>
      <point x="319" y="779" type="line"/>
    </contour>
    <contour>
      <point x="92" y="606" type="line"/>
      <point x="105" y="606" type="line"/>
      <point x="146" y="779" type="line"/>
      <point x="132" y="779" type="line"/>
    </contour>
  </outline>
</glyph>
<glyph name="numbersign" format="1">
  <advance width="649"/>
  <unicode hex="0023"/>
  <outline>
    <contour>
      <point x="40" y="249" type="line"/>
      <point x="45" y="270" type="line"/>
      <point x="160" y="274" type="line"/>
      <point x="221" y="471" type="line"/>
      <point x="109" y="467" type="line"/>
      <point x="114" y="487" type="line"/>
      <point x="228" y="491" type="line"/>
      <point x="295" y="706" type="line"/>
      <point x="316" y="706" type="line"/>
      <point x="249" y="492" type="line"/>
      <point x="449" y="499" type="line"/>
      <point x="519" y="720" type="line"/>
      <point x="540" y="720" type="line"/>
      <point x="470" y="500" type="line"/>
      <point x="576" y="504" type="line"/>
      <point x="573" y="483" type="line"/>
      <point x="463" y="479" type="line"/>
      <point x="401" y="282" type="line"/>
      <point x="505" y="286" type="line"/>
      <point x="501" y="265" type="line"/>
      <point x="394" y="261" type="line"/>
      <point x="323" y="38" type="line"/>
      <point x="302" y="38" type="line"/>
      <point x="373" y="261" type="line"/>
      <point x="173" y="254" type="line"/>
      <point x="103" y="30" type="line"/>
      <point x="83" y="30" type="line"/>
      <point x="153" y="253" type="line"/>
    </contour>
    <contour>
      <point x="242" y="472" type="line"/>
      <point x="180" y="275" type="line"/>
      <point x="380" y="282" type="line"/>
      <point x="442" y="478" type="line"/>
    </contour>
  </outline>
</glyph>
<glyph name="quotesingle" format="1">
  <advance width="239"/>
  <unicode hex="0027"/>
  <outline>
    <contour>
      <point x="96" y="606" type="line"/>
      <point x="110" y="606" type="line"/>
      <point x="150" y="779" type="line"/>
      <point x="136" y="779" type="line"/>
    </contour>
  </outline>
</glyph>
<glyph name="parenleft" format="1">
  <advance width="438"/>
  <unicode hex="0028"/>
  <outline>
    <contour>
      <point x="338" y="889" type="line"/>
      <point x="185" y="742"/>
      <point x="99" y="548"/>
      <point x="99" y="324" type="curve" smooth="yes"/>
      <point x="99" y="114"/>
      <point x="184" y="-88"/>
      <point x="334" y="-236" type="curve"/>
      <point x="319" y="-252" type="line"/>
      <point x="165" y="-99"/>
      <point x="77" y="109"/>
      <point x="77" y="326" type="curve" smooth="yes"/>
      <point x="77" y="552"/>
      <point x="166" y="751"/>
      <point x="320" y="902" type="curve"/>
    </contour>
  </outline>
</glyph>
<glyph name="parenright" format="1">
  <advance width="437"/>
  <unicode hex="0029"/>
  <outline>
    <contour>
      <point x="322" y="294" type="curve" smooth="yes"/>
      <point x="322" y="89"/>
      <point x="229" y="-106"/>
      <point x="69" y="-235" type="curve"/>
      <point x="80" y="-243" type="line"/>
      <point x="242" y="-111"/>
      <point x="336" y="87"/>
      <point x="336" y="296" type="curve" smooth="yes"/>
      <point x="336" y="512"/>
      <point x="241" y="700"/>
      <point x="84" y="828" type="curve"/>
      <point x="74" y="819" type="line"/>
      <point x="230" y="691"/>
      <point x="322" y="507"/>
    </contour>
  </outline>
</glyph>
<glyph name="plus" format="1">
  <advance width="749"/>
  <unicode hex="002B"/>
  <outline>
    <contour>
      <point x="80" y="290" type="line"/>
      <point x="371" y="290" type="line"/>
      <point x="370" y="17" type="line"/>
      <point x="384" y="17" type="line"/>
      <point x="385" y="289" type="line"/>
      <point x="664" y="289" type="line"/>
      <point x="664" y="303" type="line"/>
      <point x="385" y="303" type="line"/>
      <point x="385" y="541" type="line"/>
      <point x="371" y="541" type="line"/>
      <point x="371" y="303" type="line"/>
      <point x="80" y="303" type="line"/>
    </contour>
  </outline>
</glyph>
<glyph name="comma" format="1">
  <advance width="313"/>
  <unicode hex="002C"/>
  <outline>
    <contour>
      <point x="62" y="-99" type="line"/>
      <point x="171" y="92" type="line"/>
      <point x="194" y="92" type="line"/>
      <point x="83" y="-99" type="line"/>
    </contour>
  </outline>
</glyph>
<glyph name="hyphen" format="1">
  <advance width="379"/>
  <unicode hex="002D"/>
  <outline>
    <contour>
      <point x="43" y="283" type="line"/>
      <point x="334" y="283" type="line"/>
      <point x="334" y="261" type="line"/>
      <point x="43" y="261" type="line"/>
    </contour>
  </outline>
</glyph>
<glyph name="period" format="1">
  <advance width="316"/>
  <unicode hex="002E"/>
  <outline>
    <contour>
      <point x="146" y="147" type="line"/>
      <point x="168" y="147" type="line"/>
      <point x="168" y="0" type="line"/>
      <point x="146" y="0" type="line"/>
    </contour>
  </outline>
</glyph>
<glyph name="slash" format="1">
  <advance width="559"/>
  <unicode hex="002F"/>
  <outline>
    <contour>
      <point x="81" y="-68" type="line"/>
      <point x="59" y="-68" type="line"/>
      <point x="485" y="844" type="line"/>
      <point x="507" y="844" type="line"/>
    </contour>
  </outline>
</glyph>
<glyph name="zero" format="1">
  <advance width="571"/>
  <unicode hex="0030"/>
  <outline>
    <contour>
      <point x="92" y="272" type="curve" smooth="yes"/>
      <point x="92" y="141"/>
      <point x="167" y="21"/>
      <point x="283" y="21" type="curve" smooth="yes"/>
      <point x="399" y="21"/>
      <point x="479" y="142"/>
      <point x="479" y="276" type="curve" smooth="yes"/>
      <point x="479" y="402"/>
      <point x="405" y="513"/>
      <point x="289" y="515" type="curve"/>
      <point x="286" y="515" type="line" smooth="yes"/>
      <point x="168" y="515"/>
      <point x="92" y="401"/>
    </contour>
    <contour>
      <point x="283" y="0" type="line"/>
      <point x="157" y="1"/>
      <point x="70" y="128"/>
      <point x="70" y="273" type="curve" smooth="yes"/>
      <point x="70" y="413"/>
      <point x="156" y="537"/>
      <point x="286" y="537" type="curve" smooth="yes"/>
      <point x="287" y="537" type="line"/>
      <point x="416" y="536"/>
      <point x="501" y="412"/>
      <point x="501" y="273" type="curve" smooth="yes"/>
      <point x="501" y="127"/>
      <point x="411" y="0"/>
      <point x="285" y="0" type="curve" smooth="yes"/>
    </contour>
  </outline>
</glyph>
<glyph name="one" format="1">
  <advance width="293"/>
  <unicode hex="0031"/>
  <outline>
    <contour>
      <point x="192" y="461" type="line"/>
      <point x="4" y="316" type="line"/>
      <point x="13" y="306" type="line"/>
      <point x="192" y="443" type="line"/>
      <point x="193" y="0" type="line"/>
      <point x="207" y="0" type="line"/>
      <point x="206" y="461" type="line"/>
    </contour>
  </outline>
</glyph>
<glyph name="two" format="1">
  <advance width="431"/>
  <unicode hex="0032"/>
  <outline>
    <contour>
      <point x="334" y="342" type="curve" smooth="yes"/>
      <point x="334" y="319"/>
      <point x="330" y="294"/>
      <point x="321" y="269" type="curve" smooth="yes"/>
      <point x="274" y="132"/>
      <point x="140" y="46"/>
      <point x="-6" y="46" type="curve"/>
      <point x="-6" y="32" type="line"/>
      <point x="442" y="32" type="line"/>
      <point x="442" y="46" type="line"/>
      <point x="72" y="46" type="line"/>
      <point x="194" y="69"/>
      <point x="297" y="153"/>
      <point x="335" y="273" type="curve" smooth="yes"/>
      <point x="343" y="297"/>
      <point x="346" y="320"/>
      <point x="346" y="343" type="curve" smooth="yes"/>
      <point x="346" y="425"/>
      <point x="290" y="504"/>
      <point x="189" y="504" type="curve" smooth="yes"/>
      <point x="119" y="504"/>
      <point x="61" y="456"/>
      <point x="20" y="384" type="curve"/>
      <point x="31" y="376" type="line"/>
      <point x="69" y="443"/>
      <point x="123" y="490"/>
      <point x="188" y="490" type="curve" smooth="yes"/>
      <point x="281" y="490"/>
      <point x="334" y="418"/>
    </contour>
  </outline>
</glyph>
<glyph name="three" format="1">
  <advance width="474"/>
  <unicode hex="0033"/>
  <outline>
    <contour>
      <point x="353" y="330" type="curve" smooth="yes"/>
      <point x="353" y="217"/>
      <point x="238" y="137"/>
      <point x="111" y="137" type="curve"/>
      <point x="111" y="123" type="line"/>
      <point x="214" y="123"/>
      <point x="328" y="114"/>
      <point x="371" y="24" type="curve" smooth="yes"/>
      <point x="380" y="5"/>
      <point x="385" y="-16"/>
      <point x="385" y="-36" type="curve" smooth="yes"/>
      <point x="385" y="-139"/>
      <point x="278" y="-223"/>
      <point x="170" y="-223" type="curve" smooth="yes"/>
      <point x="126" y="-223"/>
      <point x="81" y="-210"/>
      <point x="43" y="-184" type="curve"/>
      <point x="38" y="-197" type="line"/>
      <point x="79" y="-224"/>
      <point x="126" y="-237"/>
      <point x="172" y="-237" type="curve" smooth="yes"/>
      <point x="289" y="-237"/>
      <point x="399" y="-143"/>
      <point x="399" y="-35" type="curve" smooth="yes"/>
      <point x="399" y="84"/>
      <point x="290" y="124"/>
      <point x="192" y="134" type="curve"/>
      <point x="291" y="161"/>
      <point x="366" y="235"/>
      <point x="366" y="331" type="curve" smooth="yes"/>
      <point x="366" y="432"/>
      <point x="283" y="507"/>
      <point x="174" y="507" type="curve" smooth="yes"/>
      <point x="112" y="507"/>
      <point x="51" y="480"/>
      <point x="10" y="431" type="curve"/>
      <point x="15" y="422" type="line"/>
      <point x="54" y="468"/>
      <point x="112" y="494"/>
      <point x="171" y="494" type="curve" smooth="yes"/>
      <point x="273" y="494"/>
      <point x="353" y="426"/>
    </contour>
  </outline>
</glyph>
<glyph name="four" format="1">
  <advance width="603"/>
  <unicode hex="0034"/>
  <outline>
    <contour>
      <point x="25" y="92" type="line"/>
      <point x="387" y="92" type="line"/>
      <point x="387" y="497" type="line"/>
    </contour>
    <contour>
      <point x="0" y="92" type="line"/>
      <point x="387" y="527" type="line"/>
      <point x="409" y="527" type="line"/>
      <point x="409" y="523" type="line"/>
      <point x="410" y="523" type="line"/>
      <point x="409" y="522" type="line"/>
      <point x="409" y="92" type="line"/>
      <point x="595" y="92" type="line"/>
      <point x="595" y="70" type="line"/>
      <point x="409" y="70" type="line"/>
      <point x="409" y="-222" type="line"/>
      <point x="387" y="-222" type="line"/>
      <point x="387" y="70" type="line"/>
      <point x="0" y="70" type="line"/>
    </contour>
  </outline>
</glyph>
<glyph name="five" format="1">
  <advance width="501"/>
  <unicode hex="0035"/>
  <outline>
    <contour>
      <point x="88" y="-174" type="line"/>
      <point x="136" y="-202"/>
      <point x="184" y="-214"/>
      <point x="227" y="-214" type="curve" smooth="yes"/>
      <point x="339" y="-214"/>
      <point x="425" y="-132"/>
      <point x="425" y="-23" type="curve" smooth="yes"/>
      <point x="425" y="4"/>
      <point x="420" y="33"/>
      <point x="408" y="63" type="curve" smooth="yes"/>
      <point x="373" y="154"/>
      <point x="299" y="188"/>
      <point x="207" y="188" type="curve" smooth="yes"/>
      <point x="180" y="188"/>
      <point x="152" y="185"/>
      <point x="123" y="180" type="curve"/>
      <point x="102" y="180" type="line"/>
      <point x="103" y="534" type="line"/>
      <point x="435" y="534" type="line"/>
      <point x="435" y="512" type="line"/>
      <point x="125" y="512" type="line"/>
      <point x="123" y="201" type="line"/>
      <point x="153" y="206"/>
      <point x="182" y="209"/>
      <point x="209" y="209" type="curve" smooth="yes"/>
      <point x="311" y="209"/>
      <point x="392" y="169"/>
      <point x="430" y="68" type="curve" smooth="yes"/>
      <point x="442" y="36"/>
      <point x="447" y="6"/>
      <point x="447" y="-23" type="curve" smooth="yes"/>
      <point x="447" y="-145"/>
      <point x="353" y="-237"/>
      <point x="229" y="-237" type="curve" smooth="yes"/>
      <point x="182" y="-237"/>
      <point x="129" y="-223"/>
      <point x="77" y="-193" type="curve"/>
    </contour>
  </outline>
</glyph>
<glyph name="six" format="1">
  <advance width="584"/>
  <unicode hex="0036"/>
  <outline>
    <contour>
      <point x="294" y="335" type="curve" smooth="yes"/>
      <point x="404" y="335"/>
      <point x="500" y="273"/>
      <point x="500" y="166" type="curve" smooth="yes"/>
      <point x="500" y="70"/>
      <point x="412" y="-7"/>
      <point x="307" y="-7" type="curve" smooth="yes"/>
      <point x="171" y="-7"/>
      <point x="77" y="110"/>
      <point x="77" y="246" type="curve" smooth="yes"/>
      <point x="77" y="350"/>
      <point x="134" y="446"/>
      <point x="209" y="522" type="curve" smooth="yes"/>
      <point x="294" y="609"/>
      <point x="399" y="673"/>
      <point x="516" y="707" type="curve"/>
      <point x="525" y="687" type="line"/>
      <point x="413" y="655"/>
      <point x="312" y="596"/>
      <point x="230" y="515" type="curve" smooth="yes"/>
      <point x="156" y="442"/>
      <point x="99" y="350"/>
      <point x="99" y="249" type="curve" smooth="yes"/>
      <point x="99" y="245" type="line"/>
      <point x="148" y="303"/>
      <point x="220" y="335"/>
    </contour>
    <contour>
      <point x="476" y="164" type="curve" smooth="yes"/>
      <point x="476" y="258"/>
      <point x="391" y="317"/>
      <point x="292" y="317" type="curve" smooth="yes"/>
      <point x="216" y="317"/>
      <point x="145" y="280"/>
      <point x="101" y="216" type="curve"/>
      <point x="114" y="108"/>
      <point x="199" y="16"/>
      <point x="310" y="16" type="curve" smooth="yes"/>
      <point x="400" y="16"/>
      <point x="476" y="81"/>
    </contour>
  </outline>
</glyph>
<glyph name="seven" format="1">
  <advance width="561"/>
  <unicode hex="0037"/>
  <outline>
    <contour>
      <point x="61" y="474" type="line"/>
      <point x="526" y="474" type="line"/>
      <point x="526" y="452" type="line"/>
      <point x="126" y="-222" type="line"/>
      <point x="103" y="-222" type="line"/>
      <point x="501" y="452" type="line"/>
      <point x="61" y="453" type="line"/>
    </contour>
  </outline>
</glyph>
<glyph name="eight" format="1">
  <advance width="570"/>
  <unicode hex="0038"/>
  <outline>
    <contour>
      <point x="284" y="635" type="curve" smooth="yes"/>
      <point x="366" y="635"/>
      <point x="442" y="586"/>
      <point x="442" y="506" type="curve" smooth="yes"/>
      <point x="442" y="430"/>
      <point x="366" y="380"/>
      <point x="293" y="345" type="curve"/>
      <point x="213" y="383"/>
      <point x="133" y="435"/>
      <point x="133" y="512" type="curve" smooth="yes"/>
      <point x="133" y="593"/>
      <point x="209" y="635"/>
    </contour>
    <contour>
      <point x="288" y="0" type="curve" smooth="yes"/>
      <point x="385" y="0"/>
      <point x="473" y="64"/>
      <point x="473" y="156" type="curve" smooth="yes"/>
      <point x="473" y="244"/>
      <point x="390" y="300"/>
      <point x="307" y="339" type="curve"/>
      <point x="383" y="375"/>
      <point x="456" y="430"/>
      <point x="456" y="509" type="curve" smooth="yes"/>
      <point x="456" y="597"/>
      <point x="373" y="648"/>
      <point x="283" y="648" type="curve" smooth="yes"/>
      <point x="201" y="648"/>
      <point x="120" y="599"/>
      <point x="120" y="512" type="curve" smooth="yes"/>
      <point x="120" y="432"/>
      <point x="198" y="376"/>
      <point x="279" y="338" type="curve"/>
      <point x="193" y="296"/>
      <point x="106" y="244"/>
      <point x="106" y="153" type="curve" smooth="yes"/>
      <point x="106" y="63"/>
      <point x="192" y="0"/>
    </contour>
    <contour>
      <point x="293" y="332" type="curve"/>
      <point x="377" y="292"/>
      <point x="464" y="238"/>
      <point x="461" y="149" type="curve" smooth="yes"/>
      <point x="457" y="67"/>
      <point x="377" y="13"/>
      <point x="290" y="13" type="curve" smooth="yes"/>
      <point x="200" y="14"/>
      <point x="119" y="72"/>
      <point x="119" y="156" type="curve" smooth="yes"/>
      <point x="120" y="244"/>
      <point x="209" y="292"/>
    </contour>
  </outline>
</glyph>
<glyph name="nine" format="1">
  <advance width="589"/>
  <unicode hex="0039"/>
  <outline>
    <contour>
      <point x="283" y="472" type="curve" smooth="yes"/>
      <point x="416" y="472"/>
      <point x="500" y="358"/>
      <point x="500" y="231" type="curve" smooth="yes"/>
      <point x="500" y="128"/>
      <point x="443" y="36"/>
      <point x="368" y="-37" type="curve" smooth="yes"/>
      <point x="291" y="-113"/>
      <point x="196" y="-169"/>
      <point x="92" y="-201" type="curve"/>
      <point x="84" y="-180" type="line"/>
      <point x="186" y="-150"/>
      <point x="280" y="-94"/>
      <point x="357" y="-19" type="curve"/>
      <point x="421" y="45"/>
      <point x="473" y="124"/>
      <point x="479" y="212" type="curve"/>
      <point x="436" y="149"/>
      <point x="364" y="112"/>
      <point x="289" y="112" type="curve" smooth="yes"/>
      <point x="180" y="112"/>
      <point x="91" y="182"/>
      <point x="91" y="290" type="curve" smooth="yes"/>
      <point x="91" y="391"/>
      <point x="178" y="472"/>
    </contour>
    <contour>
      <point x="115" y="293" type="curve" smooth="yes"/>
      <point x="115" y="199"/>
      <point x="196" y="134"/>
      <point x="294" y="134" type="curve" smooth="yes"/>
      <point x="371" y="134"/>
      <point x="442" y="176"/>
      <point x="479" y="244" type="curve"/>
      <point x="473" y="355"/>
      <point x="391" y="449"/>
      <point x="280" y="449" type="curve" smooth="yes"/>
      <point x="190" y="449"/>
      <point x="115" y="379"/>
    </contour>
  </outline>
</glyph>
<glyph name="colon" format="1">
  <advance width="340"/>
  <unicode hex="003A"/>
  <outline>
    <contour>
      <point x="163" y="133" type="line"/>
      <point x="163" y="0" type="line"/>
      <point x="178" y="0" type="line"/>
      <point x="178" y="133" type="line"/>
    </contour>
    <contour>
      <point x="163" y="447" type="line"/>
      <point x="163" y="314" type="line"/>
      <point x="178" y="314" type="line"/>
      <point x="178" y="447" type="line"/>
    </contour>
  </outline>
</glyph>
<glyph name="semicolon" format="1">
  <advance width="311"/>
  <unicode hex="003B"/>
  <outline>
    <contour>
      <point x="166" y="314" type="line"/>
      <point x="180" y="314" type="line"/>
      <point x="180" y="447" type="line"/>
      <point x="166" y="447" type="line"/>
    </contour>
    <contour>
      <point x="63" y="-87" type="line"/>
      <point x="77" y="-87" type="line"/>
      <point x="188" y="85" type="line"/>
      <point x="174" y="85" type="line"/>
    </contour>
  </outline>
</glyph>
<glyph name="less" format="1">
  <advance width="811"/>
  <unicode hex="003C"/>
  <outline>
    <contour>
      <point x="117" y="300" type="line"/>
      <point x="711" y="47" type="line"/>
      <point x="711" y="25" type="line"/>
      <point x="92" y="289" type="line"/>
      <point x="92" y="311" type="line"/>
      <point x="701" y="581" type="line"/>
      <point x="701" y="559" type="line"/>
    </contour>
  </outline>
</glyph>
<glyph name="equal" format="1">
  <advance width="832"/>
  <unicode hex="003D"/>
  <outline>
    <contour>
      <point x="92" y="207" type="line"/>
      <point x="92" y="193" type="line"/>
      <point x="724" y="193" type="line"/>
      <point x="724" y="207" type="line"/>
    </contour>
    <contour>
      <point x="92" y="412" type="line"/>
      <point x="92" y="398" type="line"/>
      <point x="724" y="398" type="line"/>
      <point x="724" y="412" type="line"/>
    </contour>
  </outline>
</glyph>
<glyph name="greater" format="1">
  <advance width="811"/>
  <unicode hex="003E"/>
  <outline>
    <contour>
      <point x="109" y="25" type="line"/>
      <point x="109" y="47" type="line"/>
      <point x="695" y="301" type="line"/>
      <point x="95" y="559" type="line"/>
      <point x="95" y="581" type="line"/>
      <point x="720" y="312" type="line"/>
      <point x="720" y="290" type="line"/>
    </contour>
  </outline>
</glyph>
<glyph name="question" format="1">
  <advance width="540"/>
  <unicode hex="003F"/>
  <outline>
    <contour>
      <point x="449" y="497" type="curve" smooth="yes"/>
      <point x="449" y="609"/>
      <point x="357" y="697"/>
      <point x="249" y="697" type="curve" smooth="yes"/>
      <point x="233" y="697"/>
      <point x="216" y="695"/>
      <point x="200" y="691" type="curve"/>
      <point x="202" y="677" type="line"/>
      <point x="219" y="682"/>
      <point x="235" y="684"/>
      <point x="251" y="684" type="curve" smooth="yes"/>
      <point x="351" y="684"/>
      <point x="437" y="603"/>
      <point x="437" y="499" type="curve" smooth="yes"/>
      <point x="437" y="398"/>
      <point x="355" y="319"/>
      <point x="258" y="319" type="curve" smooth="yes"/>
      <point x="253" y="319"/>
      <point x="249" y="320"/>
      <point x="244" y="320" type="curve"/>
      <point x="244" y="307" type="line"/>
      <point x="243" y="226" type="line"/>
      <point x="257" y="226" type="line"/>
      <point x="258" y="306" type="line"/>
      <point x="259" y="306" type="line" smooth="yes"/>
      <point x="361" y="306"/>
      <point x="449" y="388"/>
    </contour>
    <contour>
      <point x="257" y="-10" type="line"/>
      <point x="257" y="116" type="line"/>
      <point x="243" y="116" type="line"/>
      <point x="243" y="-10" type="line"/>
    </contour>
  </outline>
</glyph>
<glyph name="at" format="1">
  <advance width="848"/>
  <unicode hex="0040"/>
  <outline>
    <contour>
      <point x="762" y="246" type="curve" smooth="yes"/>
      <point x="762" y="138"/>
      <point x="693" y="62"/>
      <point x="627" y="62" type="curve" smooth="yes"/>
      <point x="577" y="62"/>
      <point x="543" y="103"/>
      <point x="543" y="151" type="curve" smooth="yes"/>
      <point x="543" y="155"/>
      <point x="544" y="157"/>
      <point x="545" y="159" type="curve"/>
      <point x="544" y="160" type="line"/>
      <point x="547" y="201"/>
      <point x="569" y="240"/>
      <point x="569" y="280" type="curve" smooth="yes"/>
      <point x="569" y="350"/>
      <point x="505" y="384"/>
      <point x="437" y="384" type="curve" smooth="yes"/>
      <point x="338" y="384"/>
      <point x="257" y="307"/>
      <point x="257" y="213" type="curve" smooth="yes"/>
      <point x="257" y="128"/>
      <point x="318" y="63"/>
      <point x="404" y="63" type="curve" smooth="yes"/>
      <point x="455" y="63"/>
      <point x="503" y="88"/>
      <point x="531" y="131" type="curve"/>
      <point x="538" y="87"/>
      <point x="576" y="49"/>
      <point x="626" y="49" type="curve" smooth="yes"/>
      <point x="701" y="49"/>
      <point x="776" y="133"/>
      <point x="776" y="247" type="curve" smooth="yes"/>
      <point x="776" y="418"/>
      <point x="621" y="549"/>
      <point x="437" y="549" type="curve" smooth="yes"/>
      <point x="239" y="549"/>
      <point x="69" y="403"/>
      <point x="69" y="210" type="curve" smooth="yes"/>
      <point x="69" y="16"/>
      <point x="239" y="-131"/>
      <point x="438" y="-131" type="curve" smooth="yes"/>
      <point x="534" y="-131"/>
      <point x="627" y="-96"/>
      <point x="699" y="-33" type="curve"/>
      <point x="690" y="-23" type="line"/>
      <point x="620" y="-84"/>
      <point x="530" y="-118"/>
      <point x="437" y="-118" type="curve" smooth="yes"/>
      <point x="247" y="-117"/>
      <point x="82" y="23"/>
      <point x="82" y="209" type="curve" smooth="yes"/>
      <point x="82" y="396"/>
      <point x="245" y="536"/>
      <point x="436" y="536" type="curve" smooth="yes"/>
      <point x="613" y="536"/>
      <point x="762" y="410"/>
    </contour>
    <contour>
      <point x="270" y="213" type="curve" smooth="yes"/>
      <point x="270" y="301"/>
      <point x="345" y="372"/>
      <point x="438" y="372" type="curve" smooth="yes"/>
      <point x="497" y="372"/>
      <point x="556" y="342"/>
      <point x="556" y="277" type="curve" smooth="yes"/>
      <point x="556" y="237"/>
      <point x="532" y="199"/>
      <point x="529" y="156" type="curve"/>
      <point x="508" y="107"/>
      <point x="459" y="74"/>
      <point x="406" y="74" type="curve" smooth="yes"/>
      <point x="328" y="74"/>
      <point x="270" y="134"/>
    </contour>
  </outline>
</glyph>
<glyph name="A" format="1">
  <advance width="753"/>
  <unicode hex="0041"/>
  <outline>
    <contour>
      <point x="543" y="296" type="line"/>
      <point x="411" y="693" type="line"/>
      <point x="229" y="296" type="line"/>
    </contour>
    <contour>
      <point x="550" y="275" type="line"/>
      <point x="220" y="275" type="line"/>
      <point x="94" y="0" type="line"/>
      <point x="70" y="0" type="line"/>
      <point x="402" y="721" type="line"/>
      <point x="424" y="721" type="line"/>
      <point x="664" y="1" type="line"/>
      <point x="641" y="1" type="line"/>
    </contour>
  </outline>
</glyph>
<glyph name="B" format="1">
  <advance width="632"/>
  <unicode hex="0042"/>
  <outline>
    <contour>
      <point x="351" y="403" type="curve"/>
      <point x="459" y="382"/>
      <point x="537" y="318"/>
      <point x="537" y="203" type="curve" smooth="yes"/>
      <point x="537" y="72"/>
      <point x="420" y="0"/>
      <point x="273" y="0" type="curve" smooth="yes"/>
      <point x="116" y="0" type="line"/>
      <point x="116" y="722" type="line"/>
      <point x="268" y="722" type="line" smooth="yes"/>
      <point x="390" y="722"/>
      <point x="491" y="671"/>
      <point x="491" y="558" type="curve" smooth="yes"/>
      <point x="491" y="474"/>
      <point x="433" y="422"/>
    </contour>
    <contour>
      <point x="138" y="412" type="line"/>
      <point x="271" y="412" type="line" smooth="yes"/>
      <point x="379" y="412"/>
      <point x="469" y="459"/>
      <point x="469" y="556" type="curve" smooth="yes"/>
      <point x="469" y="657"/>
      <point x="378" y="701"/>
      <point x="268" y="701" type="curve" smooth="yes"/>
      <point x="138" y="701" type="line"/>
    </contour>
    <contour>
      <point x="515" y="205" type="curve" smooth="yes"/>
      <point x="515" y="332"/>
      <point x="405" y="392"/>
      <point x="271" y="392" type="curve" smooth="yes"/>
      <point x="138" y="392" type="line"/>
      <point x="138" y="21" type="line"/>
      <point x="273" y="21" type="line" smooth="yes"/>
      <point x="408" y="21"/>
      <point x="515" y="84"/>
    </contour>
  </outline>
</glyph>
<glyph name="C" format="1">
  <advance width="636"/>
  <unicode hex="0043"/>
  <outline>
    <contour>
      <point x="366" y="4" type="curve" smooth="yes"/>
      <point x="197" y="4"/>
      <point x="101" y="142"/>
      <point x="101" y="341" type="curve" smooth="yes"/>
      <point x="101" y="562"/>
      <point x="198" y="716"/>
      <point x="386" y="716" type="curve" smooth="yes"/>
      <point x="475" y="716"/>
      <point x="545" y="689"/>
      <point x="606" y="639" type="curve"/>
      <point x="612" y="652" type="line"/>
      <point x="549" y="702"/>
      <point x="479" y="730"/>
      <point x="386" y="730" type="curve" smooth="yes"/>
      <point x="191" y="730"/>
      <point x="87" y="570"/>
      <point x="87" y="340" type="curve" smooth="yes"/>
      <point x="87" y="134"/>
      <point x="189" y="-9"/>
      <point x="366" y="-9" type="curve" smooth="yes"/>
      <point x="472" y="-9"/>
      <point x="551" y="32"/>
      <point x="612" y="97" type="curve"/>
      <point x="606" y="109" type="line"/>
      <point x="547" y="44"/>
      <point x="470" y="4"/>
    </contour>
  </outline>
</glyph>
<glyph name="D" format="1">
  <advance width="697"/>
  <unicode hex="0044"/>
  <outline>
    <contour>
      <point x="107" y="0" type="line" smooth="yes"/>
      <point x="172" y="0"/>
      <point x="237" y="1"/>
      <point x="301" y="1" type="curve" smooth="yes"/>
      <point x="510" y="1"/>
      <point x="615" y="128"/>
      <point x="615" y="336" type="curve" smooth="yes"/>
      <point x="615" y="581"/>
      <point x="505" y="722"/>
      <point x="276" y="722" type="curve" smooth="yes"/>
      <point x="93" y="722" type="line"/>
      <point x="93" y="0" type="line"/>
    </contour>
    <contour>
      <point x="601" y="341" type="curve" smooth="yes"/>
      <point x="601" y="137"/>
      <point x="499" y="14"/>
      <point x="297" y="14" type="curve" smooth="yes"/>
      <point x="107" y="14" type="line"/>
      <point x="107" y="709" type="line"/>
      <point x="279" y="709" type="line" smooth="yes"/>
      <point x="497" y="709"/>
      <point x="601" y="574"/>
    </contour>
  </outline>
</glyph>
<glyph name="E" format="1">
  <advance width="605"/>
  <unicode hex="0045"/>
  <outline>
    <contour>
      <point x="120" y="0" type="line"/>
      <point x="120" y="722" type="line"/>
      <point x="526" y="722" type="line"/>
      <point x="526" y="701" type="line"/>
      <point x="142" y="701" type="line"/>
      <point x="142" y="384" type="line"/>
      <point x="445" y="384" type="line"/>
      <point x="445" y="362" type="line"/>
      <point x="142" y="362" type="line"/>
      <point x="142" y="22" type="line"/>
      <point x="560" y="22" type="line"/>
      <point x="560" y="0" type="line"/>
    </contour>
  </outline>
</glyph>
<glyph name="F" format="1">
  <advance width="503"/>
  <unicode hex="0046"/>
  <outline>
    <contour>
      <point x="108" y="0" type="line"/>
      <point x="122" y="0" type="line"/>
      <point x="122" y="367" type="line"/>
      <point x="407" y="367" type="line"/>
      <point x="407" y="380" type="line"/>
      <point x="122" y="380" type="line"/>
      <point x="122" y="709" type="line"/>
      <point x="471" y="709" type="line"/>
      <point x="471" y="722" type="line"/>
      <point x="108" y="722" type="line"/>
    </contour>
  </outline>
</glyph>
<glyph name="G" format="1">
  <advance width="776"/>
  <unicode hex="0047"/>
  <outline>
    <contour>
      <point x="432" y="15" type="curve" smooth="yes"/>
      <point x="527" y="15"/>
      <point x="610" y="36"/>
      <point x="690" y="79" type="curve"/>
      <point x="690" y="296" type="line"/>
      <point x="483" y="296" type="line"/>
      <point x="483" y="318" type="line"/>
      <point x="711" y="318" type="line"/>
      <point x="711" y="71" type="line"/>
      <point x="627" y="22"/>
      <point x="533" y="-6"/>
      <point x="429" y="-6" type="curve" smooth="yes"/>
      <point x="208" y="-6"/>
      <point x="90" y="130"/>
      <point x="90" y="365" type="curve" smooth="yes"/>
      <point x="90" y="592"/>
      <point x="209" y="730"/>
      <point x="418" y="730" type="curve" smooth="yes"/>
      <point x="528" y="730"/>
      <point x="614" y="701"/>
      <point x="696" y="650" type="curve"/>
      <point x="686" y="631" type="line"/>
      <point x="607" y="681"/>
      <point x="524" y="708"/>
      <point x="419" y="708" type="curve" smooth="yes"/>
      <point x="224" y="708"/>
      <point x="113" y="579"/>
      <point x="113" y="368" type="curve" smooth="yes"/>
      <point x="113" y="144"/>
      <point x="222" y="15"/>
    </contour>
  </outline>
</glyph>
<glyph name="H" format="1">
  <advance width="775"/>
  <unicode hex="0048"/>
  <outline>
    <contour>
      <point x="649" y="722" type="line"/>
      <point x="649" y="369" type="line"/>
      <point x="122" y="369" type="line"/>
      <point x="122" y="722" type="line"/>
      <point x="108" y="722" type="line"/>
      <point x="108" y="0" type="line"/>
      <point x="122" y="0" type="line"/>
      <point x="122" y="355" type="line"/>
      <point x="649" y="355" type="line"/>
      <point x="649" y="0" type="line"/>
      <point x="663" y="0" type="line"/>
      <point x="663" y="722" type="line"/>
    </contour>
  </outline>
</glyph>
<glyph name="I" format="1">
  <advance width="236"/>
  <unicode hex="0049"/>
  <outline>
    <contour>
      <point x="105" y="0" type="line"/>
      <point x="106" y="722" type="line"/>
      <point x="128" y="722" type="line"/>
      <point x="127" y="0" type="line"/>
    </contour>
  </outline>
</glyph>
<glyph name="J" format="1">
  <advance width="296"/>
  <unicode hex="004A"/>
  <outline>
    <contour>
      <point x="183" y="0" type="curve" smooth="yes"/>
      <point x="184" y="722" type="line"/>
      <point x="170" y="722" type="line"/>
      <point x="169" y="0" type="line"/>
      <point x="169" y="-94"/>
      <point x="129" y="-201"/>
      <point x="27" y="-201" type="curve" smooth="yes"/>
      <point x="-8" y="-201"/>
      <point x="-42" y="-185"/>
      <point x="-63" y="-156" type="curve"/>
      <point x="-70" y="-168" type="line"/>
      <point x="-46" y="-198"/>
      <point x="-11" y="-215"/>
      <point x="27" y="-215" type="curve" smooth="yes"/>
      <point x="134" y="-215"/>
      <point x="183" y="-101"/>
    </contour>
  </outline>
</glyph>
<glyph name="K" format="1">
  <advance width="659"/>
  <unicode hex="004B"/>
  <outline>
    <contour>
      <point x="108" y="0" type="line"/>
      <point x="122" y="0" type="line"/>
      <point x="122" y="381" type="line"/>
      <point x="572" y="0" type="line"/>
      <point x="586" y="0" type="line"/>
      <point x="132" y="390" type="line"/>
      <point x="553" y="722" type="line"/>
      <point x="539" y="722" type="line"/>
      <point x="122" y="393" type="line"/>
      <point x="122" y="722" type="line"/>
      <point x="108" y="722" type="line"/>
    </contour>
  </outline>
</glyph>
<glyph name="L" format="1">
  <advance width="559"/>
  <unicode hex="004C"/>
  <outline>
    <contour>
      <point x="108" y="0" type="line"/>
      <point x="536" y="0" type="line"/>
      <point x="536" y="14" type="line"/>
      <point x="122" y="14" type="line"/>
      <point x="122" y="722" type="line"/>
      <point x="108" y="722" type="line"/>
    </contour>
  </outline>
</glyph>
<glyph name="M" format="1">
  <advance width="876"/>
  <unicode hex="004D"/>
  <outline>
    <contour>
      <point x="701" y="694" type="line"/>
      <point x="765" y="0" type="line"/>
      <point x="779" y="0" type="line"/>
      <point x="712" y="722" type="line"/>
      <point x="698" y="722" type="line"/>
      <point x="409" y="14" type="line"/>
      <point x="142" y="722" type="line"/>
      <point x="128" y="722" type="line"/>
      <point x="73" y="0" type="line"/>
      <point x="87" y="0" type="line"/>
      <point x="140" y="691" type="line"/>
      <point x="403" y="0" type="line"/>
      <point x="416" y="0" type="line"/>
    </contour>
  </outline>
</glyph>
<glyph name="N" format="1">
  <advance width="764"/>
  <unicode hex="004E"/>
  <outline>
    <contour>
      <point x="108" y="0" type="line"/>
      <point x="122" y="0" type="line"/>
      <point x="122" y="702" type="line"/>
      <point x="649" y="0" type="line"/>
      <point x="663" y="0" type="line"/>
      <point x="663" y="722" type="line"/>
      <point x="649" y="722" type="line"/>
      <point x="649" y="20" type="line"/>
      <point x="122" y="722" type="line"/>
      <point x="108" y="722" type="line"/>
    </contour>
  </outline>
</glyph>
<glyph name="O" format="1">
  <advance width="759"/>
  <unicode hex="004F"/>
  <outline>
    <contour>
      <point x="378" y="715" type="curve" smooth="yes"/>
      <point x="561" y="714"/>
      <point x="662" y="559"/>
      <point x="662" y="362" type="curve" smooth="yes"/>
      <point x="662" y="166"/>
      <point x="564" y="8"/>
      <point x="376" y="8" type="curve" smooth="yes"/>
      <point x="197" y="8"/>
      <point x="94" y="163"/>
      <point x="94" y="358" type="curve" smooth="yes"/>
      <point x="94" y="558"/>
      <point x="196" y="715"/>
    </contour>
    <contour>
      <point x="81" y="356" type="curve" smooth="yes"/>
      <point x="81" y="153"/>
      <point x="189" y="-6"/>
      <point x="377" y="-6" type="curve" smooth="yes"/>
      <point x="572" y="-6"/>
      <point x="675" y="159"/>
      <point x="675" y="364" type="curve" smooth="yes"/>
      <point x="675" y="565"/>
      <point x="570" y="728"/>
      <point x="378" y="728" type="curve" smooth="yes"/>
      <point x="187" y="728"/>
      <point x="81" y="564"/>
    </contour>
  </outline>
</glyph>
<glyph name="P" format="1">
  <advance width="550"/>
  <unicode hex="0050"/>
  <outline>
    <contour>
      <point x="245" y="722" type="line" smooth="yes"/>
      <point x="382" y="722"/>
      <point x="490" y="642"/>
      <point x="490" y="494" type="curve" smooth="yes"/>
      <point x="490" y="372"/>
      <point x="399" y="285"/>
      <point x="269" y="284" type="curve" smooth="yes"/>
      <point x="219" y="284"/>
      <point x="170" y="297"/>
      <point x="127" y="322" type="curve"/>
      <point x="127" y="0" type="line"/>
      <point x="105" y="0" type="line"/>
      <point x="105" y="722" type="line"/>
    </contour>
    <contour>
      <point x="467" y="494" type="curve" smooth="yes"/>
      <point x="467" y="627"/>
      <point x="371" y="701"/>
      <point x="245" y="701" type="curve" smooth="yes"/>
      <point x="127" y="701" type="line"/>
      <point x="127" y="346" type="line"/>
      <point x="168" y="320"/>
      <point x="216" y="307"/>
      <point x="264" y="307" type="curve" smooth="yes"/>
      <point x="386" y="307"/>
      <point x="467" y="384"/>
    </contour>
  </outline>
</glyph>
<glyph name="Q" format="1">
  <advance width="765"/>
  <unicode hex="0051"/>
  <outline>
    <contour>
      <point x="396" y="-6" type="curve"/>
      <point x="473" y="-119"/>
      <point x="611" y="-213"/>
      <point x="784" y="-219" type="curve"/>
      <point x="784" y="-240" type="line"/>
      <point x="601" y="-234"/>
      <point x="453" y="-129"/>
      <point x="374" y="-6" type="curve"/>
      <point x="186" y="-2"/>
      <point x="73" y="157"/>
      <point x="73" y="366" type="curve" smooth="yes"/>
      <point x="73" y="569"/>
      <point x="184" y="728"/>
      <point x="381" y="728" type="curve" smooth="yes"/>
      <point x="577" y="728"/>
      <point x="690" y="568"/>
      <point x="690" y="356" type="curve" smooth="yes"/>
      <point x="690" y="157"/>
      <point x="585" y="2"/>
    </contour>
    <contour>
      <point x="380" y="707" type="curve" smooth="yes"/>
      <point x="194" y="707"/>
      <point x="94" y="556"/>
      <point x="94" y="364" type="curve" smooth="yes"/>
      <point x="95" y="166"/>
      <point x="203" y="14"/>
      <point x="382" y="14" type="curve" smooth="yes"/>
      <point x="572" y="14"/>
      <point x="669" y="166"/>
      <point x="669" y="354" type="curve" smooth="yes"/>
      <point x="669" y="554"/>
      <point x="562" y="707"/>
    </contour>
  </outline>
</glyph>
<glyph name="R" format="1">
  <advance width="674"/>
  <unicode hex="0052"/>
  <outline>
    <contour>
      <point x="123" y="0" type="line"/>
      <point x="123" y="722" type="line"/>
      <point x="282" y="722" type="line" smooth="yes"/>
      <point x="416" y="722"/>
      <point x="524" y="660"/>
      <point x="524" y="535" type="curve" smooth="yes"/>
      <point x="524" y="436"/>
      <point x="455" y="375"/>
      <point x="359" y="351" type="curve"/>
      <point x="674" y="0" type="line"/>
      <point x="649" y="0" type="line"/>
      <point x="337" y="346" type="line"/>
      <point x="311" y="341"/>
      <point x="284" y="339"/>
      <point x="256" y="339" type="curve" smooth="yes"/>
      <point x="145" y="339" type="line"/>
      <point x="145" y="0" type="line"/>
    </contour>
    <contour>
      <point x="145" y="361" type="line"/>
      <point x="256" y="361" type="line" smooth="yes"/>
      <point x="390" y="361"/>
      <point x="502" y="414"/>
      <point x="502" y="535" type="curve" smooth="yes"/>
      <point x="502" y="645"/>
      <point x="403" y="701"/>
      <point x="282" y="701" type="curve" smooth="yes"/>
      <point x="145" y="701" type="line"/>
    </contour>
  </outline>
</glyph>
<glyph name="S" format="1">
  <advance width="570"/>
  <unicode hex="0053"/>
  <outline>
    <contour>
      <point x="460" y="653" type="line"/>
      <point x="405" y="686"/>
      <point x="346" y="709"/>
      <point x="273" y="709" type="curve" smooth="yes"/>
      <point x="182" y="709"/>
      <point x="113" y="660"/>
      <point x="113" y="581" type="curve" smooth="yes"/>
      <point x="113" y="481"/>
      <point x="204" y="435"/>
      <point x="284" y="391" type="curve" smooth="yes"/>
      <point x="378" y="338"/>
      <point x="480" y="275"/>
      <point x="480" y="159" type="curve" smooth="yes"/>
      <point x="480" y="55"/>
      <point x="386" y="-6"/>
      <point x="268" y="-6" type="curve" smooth="yes"/>
      <point x="195" y="-6"/>
      <point x="128" y="11"/>
      <point x="64" y="39" type="curve"/>
      <point x="72" y="59" type="line"/>
      <point x="134" y="31"/>
      <point x="200" y="15"/>
      <point x="271" y="15" type="curve" smooth="yes"/>
      <point x="376" y="15"/>
      <point x="458" y="67"/>
      <point x="458" y="160" type="curve" smooth="yes"/>
      <point x="458" y="366"/>
      <point x="121" y="368"/>
      <point x="93" y="556" type="curve" smooth="yes"/>
      <point x="92" y="565"/>
      <point x="91" y="573"/>
      <point x="91" y="581" type="curve" smooth="yes"/>
      <point x="91" y="671"/>
      <point x="170" y="730"/>
      <point x="274" y="730" type="curve" smooth="yes"/>
      <point x="351" y="730"/>
      <point x="412" y="707"/>
      <point x="469" y="673" type="curve"/>
    </contour>
  </outline>
</glyph>
<glyph name="T" format="1">
  <advance width="617"/>
  <unicode hex="0054"/>
  <outline>
    <contour>
      <point x="-13" y="714" type="line"/>
      <point x="274" y="714" type="line"/>
      <point x="274" y="0" type="line"/>
      <point x="287" y="0" type="line"/>
      <point x="287" y="714" type="line"/>
      <point x="622" y="714" type="line"/>
      <point x="622" y="728" type="line"/>
      <point x="-13" y="728" type="line"/>
    </contour>
  </outline>
</glyph>
<glyph name="U" format="1">
  <advance width="702"/>
  <unicode hex="0055"/>
  <outline>
    <contour>
      <point x="97" y="722" type="line"/>
      <point x="119" y="722" type="line"/>
      <point x="118" y="285" type="line" smooth="yes"/>
      <point x="118" y="128"/>
      <point x="212" y="16"/>
      <point x="364" y="16" type="curve" smooth="yes"/>
      <point x="507" y="16"/>
      <point x="597" y="121"/>
      <point x="597" y="269" type="curve" smooth="yes"/>
      <point x="597" y="722" type="line"/>
      <point x="619" y="722" type="line"/>
      <point x="619" y="273" type="line" smooth="yes"/>
      <point x="619" y="110"/>
      <point x="518" y="-6"/>
      <point x="360" y="-6" type="curve" smooth="yes"/>
      <point x="197" y="-6"/>
      <point x="97" y="114"/>
      <point x="97" y="281" type="curve" smooth="yes"/>
    </contour>
  </outline>
</glyph>
<glyph name="V" format="1">
  <advance width="640"/>
  <unicode hex="0056"/>
  <outline>
    <contour>
      <point x="611" y="722" type="line"/>
      <point x="597" y="722" type="line"/>
      <point x="342" y="17" type="line"/>
      <point x="88" y="722" type="line"/>
      <point x="74" y="722" type="line"/>
      <point x="336" y="0" type="line"/>
      <point x="350" y="0" type="line"/>
    </contour>
  </outline>
</glyph>
<glyph name="W" format="1">
  <advance width="968"/>
  <unicode hex="0057"/>
  <outline>
    <contour>
      <point x="888" y="722" type="line"/>
      <point x="874" y="722" type="line"/>
      <point x="681" y="19" type="line"/>
      <point x="505" y="722" type="line"/>
      <point x="491" y="722" type="line"/>
      <point x="316" y="19" type="line"/>
      <point x="87" y="722" type="line"/>
      <point x="73" y="722" type="line"/>
      <point x="311" y="0" type="line"/>
      <point x="325" y="0" type="line"/>
      <point x="500" y="703" type="line"/>
      <point x="676" y="0" type="line"/>
      <point x="690" y="0" type="line"/>
    </contour>
  </outline>
</glyph>
<glyph name="X" format="1">
  <advance width="686"/>
  <unicode hex="0058"/>
  <outline>
    <contour>
      <point x="99" y="722" type="line"/>
      <point x="336" y="365" type="line"/>
      <point x="56" y="0" type="line"/>
      <point x="70" y="0" type="line"/>
      <point x="342" y="355" type="line"/>
      <point x="578" y="0" type="line"/>
      <point x="592" y="0" type="line"/>
      <point x="347" y="370" type="line"/>
      <point x="624" y="722" type="line"/>
      <point x="610" y="722" type="line"/>
      <point x="339" y="381" type="line"/>
      <point x="113" y="722" type="line"/>
    </contour>
  </outline>
</glyph>
<glyph name="Y" format="1">
  <advance width="617"/>
  <unicode hex="0059"/>
  <outline>
    <contour>
      <point x="557" y="722" type="line"/>
      <point x="579" y="722" type="line"/>
      <point x="326" y="342" type="line"/>
      <point x="326" y="0" type="line"/>
      <point x="304" y="0" type="line"/>
      <point x="304" y="329" type="line"/>
      <point x="62" y="722" type="line"/>
      <point x="84" y="722" type="line"/>
      <point x="311" y="358" type="line"/>
    </contour>
  </outline>
</glyph>
<glyph name="Z" format="1">
  <advance width="663"/>
  <unicode hex="005A"/>
  <outline>
    <contour>
      <point x="93" y="685" type="line"/>
      <point x="593" y="685" type="line"/>
      <point x="26" y="30" type="line"/>
      <point x="26" y="17" type="line"/>
      <point x="632" y="17" type="line"/>
      <point x="632" y="30" type="line"/>
      <point x="40" y="30" type="line"/>
      <point x="607" y="685" type="line"/>
      <point x="607" y="699" type="line"/>
      <point x="93" y="698" type="line"/>
    </contour>
  </outline>
</glyph>
<glyph name="underscore" format="1">
  <advance width="702"/>
  <unicode hex="005F"/>
  <outline>
    <contour>
      <point x="6" y="-184" type="line"/>
      <point x="6" y="-197" type="line"/>
      <point x="691" y="-197" type="line"/>
      <point x="691" y="-184" type="line"/>
    </contour>
  </outline>
</glyph>
<glyph name="grave" format="1">
  <advance width="318"/>
  <unicode hex="0060"/>
  <outline>
    <contour>
      <point x="238" y="604" type="line"/>
      <point x="251" y="604" type="line"/>
      <point x="101" y="779" type="line"/>
      <point x="87" y="779" type="line"/>
    </contour>
  </outline>
</glyph>
<glyph name="a" format="1">
  <advance width="538"/>
  <unicode hex="0061"/>
  <outline>
    <contour>
      <point x="397" y="314" type="curve" smooth="yes"/>
      <point x="397" y="288" type="line"/>
      <point x="364" y="288" type="line" smooth="yes"/>
      <point x="235" y="288"/>
      <point x="111" y="282"/>
      <point x="75" y="166" type="curve" smooth="yes"/>
      <point x="70" y="151"/>
      <point x="68" y="136"/>
      <point x="68" y="122" type="curve" smooth="yes"/>
      <point x="68" y="46"/>
      <point x="138" y="-19"/>
      <point x="230" y="-19" type="curve" smooth="yes"/>
      <point x="309" y="-19"/>
      <point x="371" y="38"/>
      <point x="396" y="126" type="curve"/>
      <point x="396" y="107" type="line"/>
      <point x="396" y="0" type="line"/>
      <point x="410" y="0" type="line"/>
      <point x="410" y="318" type="line" smooth="yes"/>
      <point x="410" y="426"/>
      <point x="348" y="501"/>
      <point x="228" y="501" type="curve" smooth="yes"/>
      <point x="176" y="501"/>
      <point x="126" y="484"/>
      <point x="84" y="452" type="curve"/>
      <point x="93" y="443" type="line"/>
      <point x="132" y="472"/>
      <point x="179" y="488"/>
      <point x="226" y="488" type="curve" smooth="yes"/>
      <point x="339" y="488"/>
      <point x="397" y="416"/>
    </contour>
    <contour>
      <point x="81" y="123" type="curve" smooth="yes"/>
      <point x="81" y="137"/>
      <point x="84" y="152"/>
      <point x="89" y="167" type="curve" smooth="yes"/>
      <point x="122" y="266"/>
      <point x="221" y="275"/>
      <point x="330" y="275" type="curve" smooth="yes"/>
      <point x="397" y="275" type="line"/>
      <point x="397" y="250"/>
      <point x="396" y="226"/>
      <point x="396" y="201" type="curve"/>
      <point x="389" y="79"/>
      <point x="324" y="-5"/>
      <point x="231" y="-5" type="curve" smooth="yes"/>
      <point x="146" y="-5"/>
      <point x="81" y="54"/>
    </contour>
  </outline>
</glyph>
<glyph name="b" format="1">
  <advance width="589"/>
  <unicode hex="0062"/>
  <outline>
    <contour>
      <point x="516" y="271" type="curve" smooth="yes"/>
      <point x="516" y="117"/>
      <point x="432" y="-5"/>
      <point x="280" y="-5" type="curve" smooth="yes"/>
      <point x="204" y="-5"/>
      <point x="142" y="32"/>
      <point x="111" y="96" type="curve"/>
      <point x="111" y="0" type="line"/>
      <point x="89" y="0" type="line"/>
      <point x="89" y="783" type="line"/>
      <point x="111" y="783" type="line"/>
      <point x="111" y="432" type="line"/>
      <point x="146" y="499"/>
      <point x="213" y="541"/>
      <point x="291" y="541" type="curve" smooth="yes"/>
      <point x="444" y="541"/>
      <point x="516" y="416"/>
    </contour>
    <contour>
      <point x="111" y="140" type="line"/>
      <point x="133" y="61"/>
      <point x="196" y="13"/>
      <point x="278" y="13" type="curve" smooth="yes"/>
      <point x="423" y="13"/>
      <point x="493" y="130"/>
      <point x="495" y="267" type="curve"/>
      <point x="496" y="406"/>
      <point x="427" y="523"/>
      <point x="288" y="523" type="curve" smooth="yes"/>
      <point x="204" y="523"/>
      <point x="134" y="471"/>
      <point x="111" y="390" type="curve"/>
    </contour>
  </outline>
</glyph>
<glyph name="c" format="1">
  <advance width="464"/>
  <unicode hex="0063"/>
  <outline>
    <contour>
      <point x="92" y="267" type="curve" smooth="yes"/>
      <point x="92" y="130"/>
      <point x="154" y="15"/>
      <point x="294" y="15" type="curve" smooth="yes"/>
      <point x="352" y="15"/>
      <point x="406" y="42"/>
      <point x="442" y="89" type="curve"/>
      <point x="457" y="74" type="line"/>
      <point x="417" y="21"/>
      <point x="357" y="-8"/>
      <point x="292" y="-8" type="curve" smooth="yes"/>
      <point x="139" y="-8"/>
      <point x="70" y="120"/>
      <point x="70" y="267" type="curve" smooth="yes"/>
      <point x="70" y="417"/>
      <point x="147" y="540"/>
      <point x="300" y="540" type="curve" smooth="yes"/>
      <point x="354" y="540"/>
      <point x="404" y="520"/>
      <point x="444" y="483" type="curve"/>
      <point x="432" y="466" type="line"/>
      <point x="396" y="500"/>
      <point x="349" y="519"/>
      <point x="300" y="519" type="curve" smooth="yes"/>
      <point x="157" y="519"/>
      <point x="92" y="402"/>
    </contour>
  </outline>
</glyph>
<glyph name="d" format="1">
  <advance width="621"/>
  <unicode hex="0064"/>
  <outline>
    <contour>
      <point x="312" y="537" type="curve" smooth="yes"/>
      <point x="398" y="537"/>
      <point x="462" y="499"/>
      <point x="498" y="433" type="curve"/>
      <point x="498" y="550"/>
      <point x="497" y="667"/>
      <point x="496" y="783" type="curve"/>
      <point x="518" y="783" type="line"/>
      <point x="519" y="652"/>
      <point x="520" y="521"/>
      <point x="520" y="389" type="curve" smooth="yes"/>
      <point x="520" y="296"/>
      <point x="519" y="202"/>
      <point x="519" y="109" type="curve" smooth="yes"/>
      <point x="519" y="73"/>
      <point x="518" y="36"/>
      <point x="518" y="0" type="curve"/>
      <point x="496" y="0" type="line"/>
      <point x="496" y="36"/>
      <point x="497" y="73"/>
      <point x="497" y="109" type="curve" smooth="yes"/>
      <point x="497" y="110" type="line"/>
      <point x="467" y="38"/>
      <point x="399" y="-6"/>
      <point x="312" y="-6" type="curve" smooth="yes"/>
      <point x="164" y="-6"/>
      <point x="76" y="112"/>
      <point x="76" y="264" type="curve" smooth="yes"/>
      <point x="76" y="420"/>
      <point x="167" y="537"/>
    </contour>
    <contour>
      <point x="321" y="518" type="curve" smooth="yes"/>
      <point x="178" y="518"/>
      <point x="98" y="407"/>
      <point x="98" y="264" type="curve" smooth="yes"/>
      <point x="98" y="120"/>
      <point x="180" y="11"/>
      <point x="316" y="11" type="curve" smooth="yes"/>
      <point x="412" y="11"/>
      <point x="482" y="70"/>
      <point x="497" y="159" type="curve"/>
      <point x="497" y="236"/>
      <point x="498" y="312"/>
      <point x="498" y="389" type="curve" smooth="yes"/>
      <point x="498" y="403" type="line"/>
      <point x="465" y="477"/>
      <point x="401" y="518"/>
    </contour>
  </outline>
</glyph>
<glyph name="e" format="1">
  <advance width="552"/>
  <unicode hex="0065"/>
  <outline>
    <contour>
      <point x="82" y="256" type="curve"/>
      <point x="452" y="256" type="line"/>
      <point x="466" y="256" type="line"/>
      <point x="467" y="266"/>
      <point x="467" y="275"/>
      <point x="467" y="285" type="curve" smooth="yes"/>
      <point x="467" y="410"/>
      <point x="399" y="498"/>
      <point x="276" y="498" type="curve" smooth="yes"/>
      <point x="150" y="498"/>
      <point x="69" y="391"/>
      <point x="69" y="250" type="curve" smooth="yes"/>
      <point x="69" y="99"/>
      <point x="147" y="-6"/>
      <point x="292" y="-6" type="curve" smooth="yes"/>
      <point x="359" y="-6"/>
      <point x="424" y="17"/>
      <point x="474" y="60" type="curve"/>
      <point x="466" y="71" type="line"/>
      <point x="419" y="29"/>
      <point x="359" y="6"/>
      <point x="297" y="6" type="curve" smooth="yes"/>
      <point x="158" y="6"/>
      <point x="81" y="106"/>
    </contour>
    <contour>
      <point x="453" y="285" type="curve" smooth="yes"/>
      <point x="453" y="268" type="line"/>
      <point x="83" y="268" type="line"/>
      <point x="88" y="392"/>
      <point x="161" y="486"/>
      <point x="276" y="486" type="curve" smooth="yes"/>
      <point x="390" y="486"/>
      <point x="453" y="403"/>
    </contour>
  </outline>
</glyph>
<glyph name="f" format="1">
  <advance width="458"/>
  <unicode hex="0066"/>
  <outline>
    <contour>
      <point x="220" y="466" type="line"/>
      <point x="220" y="664" type="line" smooth="yes"/>
      <point x="220" y="752"/>
      <point x="293" y="814"/>
      <point x="370" y="814" type="curve" smooth="yes"/>
      <point x="400" y="814"/>
      <point x="430" y="805"/>
      <point x="457" y="785" type="curve"/>
      <point x="463" y="797" type="line"/>
      <point x="433" y="818"/>
      <point x="401" y="827"/>
      <point x="369" y="827" type="curve" smooth="yes"/>
      <point x="284" y="827"/>
      <point x="206" y="760"/>
      <point x="206" y="664" type="curve" smooth="yes"/>
      <point x="206" y="466" type="line"/>
      <point x="29" y="466" type="line"/>
      <point x="29" y="452" type="line"/>
      <point x="206" y="452" type="line"/>
      <point x="206" y="0" type="line"/>
      <point x="220" y="0" type="line"/>
      <point x="220" y="452" type="line"/>
      <point x="448" y="452" type="line"/>
      <point x="448" y="466" type="line"/>
    </contour>
  </outline>
</glyph>
<glyph name="g" format="1">
  <advance width="582"/>
  <unicode hex="0067"/>
  <outline>
    <contour>
      <point x="490" y="-109" type="curve" smooth="yes"/>
      <point x="490" y="-21"/>
      <point x="408" y="25"/>
      <point x="326" y="25" type="curve" smooth="yes"/>
      <point x="284" y="25"/>
      <point x="242" y="21"/>
      <point x="206" y="21" type="curve" smooth="yes"/>
      <point x="192" y="21"/>
      <point x="179" y="22"/>
      <point x="167" y="23" type="curve"/>
      <point x="107" y="-1"/>
      <point x="66" y="-60"/>
      <point x="66" y="-127" type="curve" smooth="yes"/>
      <point x="66" y="-225"/>
      <point x="142" y="-272"/>
      <point x="244" y="-272" type="curve" smooth="yes"/>
      <point x="369" y="-272"/>
      <point x="490" y="-208"/>
    </contour>
    <contour>
      <point x="236" y="-293" type="curve" smooth="yes"/>
      <point x="126" y="-293"/>
      <point x="45" y="-242"/>
      <point x="45" y="-132" type="curve" smooth="yes"/>
      <point x="45" y="-64"/>
      <point x="84" y="-3"/>
      <point x="144" y="27" type="curve"/>
      <point x="107" y="37"/>
      <point x="76" y="65"/>
      <point x="76" y="121" type="curve" smooth="yes"/>
      <point x="76" y="170"/>
      <point x="110" y="213"/>
      <point x="158" y="224" type="curve"/>
      <point x="113" y="253"/>
      <point x="81" y="299"/>
      <point x="81" y="363" type="curve" smooth="yes"/>
      <point x="81" y="460"/>
      <point x="165" y="539"/>
      <point x="268" y="539" type="curve" smooth="yes"/>
      <point x="321" y="539"/>
      <point x="367" y="519"/>
      <point x="400" y="485" type="curve"/>
      <point x="572" y="485" type="line"/>
      <point x="572" y="464" type="line"/>
      <point x="418" y="464" type="line"/>
      <point x="438" y="437"/>
      <point x="450" y="404"/>
      <point x="450" y="368" type="curve" smooth="yes"/>
      <point x="450" y="270"/>
      <point x="365" y="194"/>
      <point x="264" y="194" type="curve" smooth="yes"/>
      <point x="262" y="194" type="line" smooth="yes"/>
      <point x="228" y="194"/>
      <point x="197" y="203"/>
      <point x="169" y="218" type="curve"/>
      <point x="127" y="209"/>
      <point x="96" y="171"/>
      <point x="96" y="127" type="curve" smooth="yes"/>
      <point x="96" y="67"/>
      <point x="132" y="45"/>
      <point x="176" y="40" type="curve"/>
      <point x="177" y="40" type="line"/>
      <point x="183" y="38"/>
      <point x="194" y="39"/>
      <point x="202" y="39" type="curve" smooth="yes"/>
      <point x="241" y="39"/>
      <point x="287" y="45"/>
      <point x="334" y="45" type="curve" smooth="yes"/>
      <point x="424" y="45"/>
      <point x="509" y="-9"/>
      <point x="509" y="-106" type="curve" smooth="yes"/>
      <point x="509" y="-217"/>
      <point x="377" y="-293"/>
    </contour>
    <contour>
      <point x="103" y="364" type="curve" smooth="yes"/>
      <point x="103" y="272"/>
      <point x="181" y="214"/>
      <point x="265" y="214" type="curve" smooth="yes"/>
      <point x="267" y="214" type="line"/>
      <point x="353" y="215"/>
      <point x="430" y="278"/>
      <point x="430" y="367" type="curve" smooth="yes"/>
      <point x="430" y="452"/>
      <point x="356" y="519"/>
      <point x="268" y="519" type="curve" smooth="yes"/>
      <point x="266" y="519" type="line"/>
      <point x="176" y="518"/>
      <point x="103" y="449"/>
    </contour>
  </outline>
</glyph>
<glyph name="h" format="1">
  <advance width="572"/>
  <unicode hex="0068"/>
  <outline>
    <contour>
      <point x="457" y="326" type="curve" smooth="yes"/>
      <point x="457" y="218"/>
      <point x="457" y="109"/>
      <point x="458" y="0" type="curve"/>
      <point x="472" y="0" type="line"/>
      <point x="471" y="109"/>
      <point x="471" y="218"/>
      <point x="471" y="328" type="curve" smooth="yes"/>
      <point x="471" y="422"/>
      <point x="394" y="505"/>
      <point x="284" y="505" type="curve" smooth="yes"/>
      <point x="214" y="505"/>
      <point x="148" y="469"/>
      <point x="110" y="408" type="curve"/>
      <point x="110" y="820" type="line"/>
      <point x="96" y="820" type="line"/>
      <point x="96" y="0" type="line"/>
      <point x="110" y="0" type="line"/>
      <point x="110" y="380" type="line"/>
      <point x="143" y="448"/>
      <point x="211" y="492"/>
      <point x="284" y="492" type="curve" smooth="yes"/>
      <point x="386" y="492"/>
      <point x="457" y="415"/>
    </contour>
  </outline>
</glyph>
<glyph name="i" format="1">
  <advance width="238"/>
  <unicode hex="0069"/>
  <outline>
    <contour>
      <point x="104" y="690" type="line"/>
      <point x="104" y="792" type="line"/>
      <point x="126" y="792" type="line"/>
      <point x="126" y="690" type="line"/>
    </contour>
    <contour>
      <point x="105" y="0" type="line"/>
      <point x="104" y="533" type="line"/>
      <point x="126" y="533" type="line"/>
      <point x="127" y="0" type="line"/>
    </contour>
  </outline>
</glyph>
<glyph name="j" format="1">
  <advance width="347"/>
  <unicode hex="006A"/>
  <outline>
    <contour>
      <point x="179" y="683" type="line"/>
      <point x="179" y="790" type="line"/>
      <point x="201" y="790" type="line"/>
      <point x="201" y="683" type="line"/>
    </contour>
    <contour>
      <point x="17" y="-269" type="line"/>
      <point x="26" y="-271"/>
      <point x="35" y="-271"/>
      <point x="43" y="-271" type="curve" smooth="yes"/>
      <point x="117" y="-271"/>
      <point x="179" y="-211"/>
      <point x="179" y="-135" type="curve" smooth="yes"/>
      <point x="179" y="535" type="line"/>
      <point x="201" y="535" type="line"/>
      <point x="201" y="-135" type="line" smooth="yes"/>
      <point x="201" y="-223"/>
      <point x="128" y="-292"/>
      <point x="43" y="-292" type="curve" smooth="yes"/>
      <point x="34" y="-292"/>
      <point x="26" y="-291"/>
      <point x="17" y="-290" type="curve"/>
    </contour>
  </outline>
</glyph>
<glyph name="k" format="1">
  <advance width="599"/>
  <unicode hex="006B"/>
  <outline>
    <contour>
      <point x="126" y="0" type="line"/>
      <point x="140" y="0" type="line"/>
      <point x="140" y="252" type="line"/>
      <point x="513" y="0" type="line"/>
      <point x="531" y="0" type="line"/>
      <point x="154" y="258" type="line"/>
      <point x="505" y="491" type="line"/>
      <point x="487" y="491" type="line"/>
      <point x="140" y="262" type="line"/>
      <point x="140" y="779" type="line"/>
      <point x="126" y="779" type="line"/>
    </contour>
  </outline>
</glyph>
<glyph name="l" format="1">
  <advance width="263"/>
  <unicode hex="006C"/>
  <outline>
    <contour>
      <point x="121" y="1" type="line"/>
      <point x="135" y="1" type="line"/>
      <point x="135" y="820" type="line"/>
      <point x="121" y="820" type="line"/>
    </contour>
  </outline>
</glyph>
<glyph name="m" format="1">
  <advance width="935"/>
  <unicode hex="006D"/>
  <outline>
    <contour>
      <point x="457" y="365" type="curve" smooth="yes"/>
      <point x="457" y="461"/>
      <point x="404" y="524"/>
      <point x="297" y="524" type="curve" smooth="yes"/>
      <point x="220" y="524"/>
      <point x="155" y="480"/>
      <point x="126" y="405" type="curve"/>
      <point x="126" y="259"/>
      <point x="125" y="150"/>
      <point x="124" y="0" type="curve"/>
      <point x="102" y="0" type="line"/>
      <point x="103" y="159"/>
      <point x="104" y="271"/>
      <point x="104" y="431" type="curve" smooth="yes"/>
      <point x="104" y="533" type="line"/>
      <point x="126" y="533" type="line"/>
      <point x="126" y="436" type="line"/>
      <point x="159" y="505"/>
      <point x="225" y="547"/>
      <point x="301" y="547" type="curve" smooth="yes"/>
      <point x="399" y="547"/>
      <point x="459" y="495"/>
      <point x="474" y="421" type="curve"/>
      <point x="502" y="499"/>
      <point x="571" y="547"/>
      <point x="651" y="547" type="curve" smooth="yes"/>
      <point x="777" y="547"/>
      <point x="830" y="464"/>
      <point x="830" y="353" type="curve" smooth="yes"/>
      <point x="830" y="236"/>
      <point x="830" y="118"/>
      <point x="831" y="1" type="curve"/>
      <point x="809" y="1" type="line"/>
      <point x="808" y="118"/>
      <point x="808" y="235"/>
      <point x="808" y="352" type="curve" smooth="yes"/>
      <point x="808" y="453"/>
      <point x="759" y="524"/>
      <point x="647" y="524" type="curve" smooth="yes"/>
      <point x="567" y="524"/>
      <point x="501" y="474"/>
      <point x="478" y="393" type="curve"/>
      <point x="479" y="384"/>
      <point x="479" y="374"/>
      <point x="479" y="364" type="curve" smooth="yes"/>
      <point x="479" y="243"/>
      <point x="478" y="122"/>
      <point x="478" y="1" type="curve"/>
      <point x="456" y="1" type="line"/>
      <point x="456" y="123"/>
      <point x="457" y="244"/>
    </contour>
  </outline>
</glyph>
<glyph name="n" format="1">
  <advance width="585"/>
  <unicode hex="006E"/>
  <outline>
    <contour>
      <point x="466" y="376" type="line" smooth="yes"/>
      <point x="466" y="465"/>
      <point x="397" y="522"/>
      <point x="297" y="522" type="curve" smooth="yes"/>
      <point x="218" y="522"/>
      <point x="151" y="478"/>
      <point x="118" y="403" type="curve"/>
      <point x="118" y="268"/>
      <point x="117" y="135"/>
      <point x="116" y="0" type="curve"/>
      <point x="94" y="0" type="line"/>
      <point x="96" y="144"/>
      <point x="96" y="287"/>
      <point x="96" y="431" type="curve" smooth="yes"/>
      <point x="96" y="533" type="line"/>
      <point x="118" y="533" type="line"/>
      <point x="118" y="431" type="line"/>
      <point x="154" y="502"/>
      <point x="222" y="544"/>
      <point x="302" y="544" type="curve" smooth="yes"/>
      <point x="414" y="544"/>
      <point x="488" y="476"/>
      <point x="488" y="378" type="curve" smooth="yes"/>
      <point x="488" y="0" type="line"/>
      <point x="466" y="0" type="line"/>
    </contour>
  </outline>
</glyph>
<glyph name="o" format="1">
  <advance width="601"/>
  <unicode hex="006F"/>
  <outline>
    <contour>
      <point x="97" y="273" type="curve" smooth="yes"/>
      <point x="97" y="126"/>
      <point x="161" y="17"/>
      <point x="294" y="17" type="curve" smooth="yes"/>
      <point x="298" y="17" type="line"/>
      <point x="429" y="18"/>
      <point x="494" y="124"/>
      <point x="494" y="268" type="curve" smooth="yes"/>
      <point x="494" y="412"/>
      <point x="425" y="518"/>
      <point x="294" y="518" type="curve" smooth="yes"/>
      <point x="159" y="518"/>
      <point x="97" y="412"/>
    </contour>
    <contour>
      <point x="296" y="-6" type="curve" smooth="yes"/>
      <point x="144" y="-6"/>
      <point x="75" y="113"/>
      <point x="75" y="270" type="curve" smooth="yes"/>
      <point x="75" y="425"/>
      <point x="150" y="539"/>
      <point x="295" y="539" type="curve" smooth="yes"/>
      <point x="299" y="539" type="line"/>
      <point x="443" y="537"/>
      <point x="515" y="425"/>
      <point x="515" y="271" type="curve" smooth="yes"/>
      <point x="515" y="111"/>
      <point x="440" y="-6"/>
    </contour>
  </outline>
</glyph>
<glyph name="p" format="1">
  <advance width="618"/>
  <unicode hex="0070"/>
  <outline>
    <contour>
      <point x="537" y="272" type="curve" smooth="yes"/>
      <point x="537" y="116"/>
      <point x="441" y="-6"/>
      <point x="284" y="-6" type="curve" smooth="yes"/>
      <point x="216" y="-6"/>
      <point x="160" y="19"/>
      <point x="119" y="70" type="curve"/>
      <point x="119" y="-53"/>
      <point x="118" y="-176"/>
      <point x="117" y="-300" type="curve"/>
      <point x="95" y="-300" type="line"/>
      <point x="96" y="-158"/>
      <point x="97" y="-16"/>
      <point x="97" y="126" type="curve" smooth="yes"/>
      <point x="97" y="214"/>
      <point x="97" y="301"/>
      <point x="96" y="389" type="curve" smooth="yes"/>
      <point x="96" y="437"/>
      <point x="95" y="485"/>
      <point x="95" y="533" type="curve"/>
      <point x="117" y="533" type="line"/>
      <point x="117" y="493"/>
      <point x="118" y="454"/>
      <point x="118" y="414" type="curve"/>
      <point x="154" y="489"/>
      <point x="231" y="540"/>
      <point x="317" y="540" type="curve" smooth="yes"/>
      <point x="461" y="540"/>
      <point x="537" y="412"/>
    </contour>
    <contour>
      <point x="515" y="276" type="curve" smooth="yes"/>
      <point x="515" y="407"/>
      <point x="442" y="523"/>
      <point x="311" y="523" type="curve" smooth="yes"/>
      <point x="216" y="523"/>
      <point x="135" y="452"/>
      <point x="118" y="362" type="curve"/>
      <point x="119" y="283"/>
      <point x="119" y="205"/>
      <point x="119" y="126" type="curve" smooth="yes"/>
      <point x="119" y="98" type="line"/>
      <point x="158" y="42"/>
      <point x="213" y="13"/>
      <point x="280" y="13" type="curve" smooth="yes"/>
      <point x="432" y="13"/>
      <point x="515" y="128"/>
    </contour>
  </outline>
</glyph>
<glyph name="q" format="1">
  <advance width="660"/>
  <unicode hex="0071"/>
  <outline>
    <contour>
      <point x="361" y="-10" type="curve" smooth="yes"/>
      <point x="415" y="-10"/>
      <point x="469" y="4"/>
      <point x="516" y="31" type="curve"/>
      <point x="516" y="-285" type="line"/>
      <point x="530" y="-285" type="line"/>
      <point x="530" y="491" type="line"/>
      <point x="516" y="491" type="line"/>
      <point x="516" y="414" type="line"/>
      <point x="471" y="465"/>
      <point x="407" y="496"/>
      <point x="334" y="496" type="curve" smooth="yes"/>
      <point x="194" y="496"/>
      <point x="80" y="385"/>
      <point x="80" y="248" type="curve" smooth="yes"/>
      <point x="80" y="100"/>
      <point x="204" y="-10"/>
    </contour>
    <contour>
      <point x="93" y="250" type="curve" smooth="yes"/>
      <point x="93" y="379"/>
      <point x="201" y="485"/>
      <point x="333" y="485" type="curve" smooth="yes"/>
      <point x="405" y="485"/>
      <point x="474" y="450"/>
      <point x="516" y="393" type="curve"/>
      <point x="516" y="46" type="line"/>
      <point x="471" y="17"/>
      <point x="418" y="2"/>
      <point x="364" y="2" type="curve" smooth="yes"/>
      <point x="215" y="2"/>
      <point x="93" y="107"/>
    </contour>
  </outline>
</glyph>
<glyph name="r" format="1">
  <advance width="387"/>
  <unicode hex="0072"/>
  <outline>
    <contour>
      <point x="352" y="518" type="curve" smooth="yes"/>
      <point x="236" y="518"/>
      <point x="160" y="468"/>
      <point x="112" y="392" type="curve"/>
      <point x="112" y="0" type="line"/>
      <point x="90" y="0" type="line"/>
      <point x="90" y="533" type="line"/>
      <point x="112" y="533" type="line"/>
      <point x="112" y="426" type="line"/>
      <point x="162" y="494"/>
      <point x="243" y="540"/>
      <point x="355" y="540" type="curve" smooth="yes"/>
      <point x="363" y="540"/>
      <point x="372" y="540"/>
      <point x="380" y="539" type="curve"/>
      <point x="377" y="517" type="line"/>
      <point x="369" y="518"/>
      <point x="360" y="518"/>
    </contour>
  </outline>
</glyph>
<glyph name="s" format="1">
  <advance width="458"/>
  <unicode hex="0073"/>
  <outline>
    <contour>
      <point x="379" y="441" type="curve"/>
      <point x="385" y="453" type="line"/>
      <point x="338" y="482"/>
      <point x="294" y="498"/>
      <point x="233" y="498" type="curve" smooth="yes"/>
      <point x="145" y="498"/>
      <point x="76" y="451"/>
      <point x="76" y="378" type="curve" smooth="yes"/>
      <point x="76" y="285"/>
      <point x="153" y="264"/>
      <point x="229" y="237" type="curve" smooth="yes"/>
      <point x="303" y="211"/>
      <point x="376" y="188"/>
      <point x="375" y="114" type="curve"/>
      <point x="375" y="33"/>
      <point x="292" y="8"/>
      <point x="199" y="8" type="curve" smooth="yes"/>
      <point x="133" y="8"/>
      <point x="80" y="22"/>
      <point x="23" y="56" type="curve"/>
      <point x="15" y="45" type="line"/>
      <point x="74" y="10"/>
      <point x="128" y="-6"/>
      <point x="197" y="-6" type="curve" smooth="yes"/>
      <point x="299" y="-6"/>
      <point x="389" y="27"/>
      <point x="389" y="114" type="curve" smooth="yes"/>
      <point x="389" y="194"/>
      <point x="315" y="221"/>
      <point x="238" y="247" type="curve" smooth="yes"/>
      <point x="167" y="272"/>
      <point x="88" y="288"/>
      <point x="88" y="376" type="curve" smooth="yes"/>
      <point x="88" y="441"/>
      <point x="151" y="484"/>
      <point x="231" y="484" type="curve" smooth="yes"/>
      <point x="291" y="484"/>
      <point x="332" y="470"/>
    </contour>
  </outline>
</glyph>
<glyph name="t" format="1">
  <advance width="423"/>
  <unicode hex="0074"/>
  <outline>
    <contour>
      <point x="315" y="-8" type="curve" smooth="yes"/>
      <point x="346" y="-8"/>
      <point x="377" y="1"/>
      <point x="403" y="19" type="curve"/>
      <point x="398" y="32" type="line"/>
      <point x="375" y="14"/>
      <point x="347" y="5"/>
      <point x="318" y="5" type="curve" smooth="yes"/>
      <point x="240" y="5"/>
      <point x="182" y="65"/>
      <point x="182" y="134" type="curve" smooth="yes"/>
      <point x="182" y="443" type="line"/>
      <point x="414" y="444" type="line"/>
      <point x="414" y="457" type="line"/>
      <point x="182" y="456" type="line"/>
      <point x="182" y="595" type="line"/>
      <point x="171" y="588" type="line"/>
      <point x="171" y="456" type="line"/>
      <point x="25" y="456" type="line"/>
      <point x="25" y="443" type="line"/>
      <point x="171" y="443" type="line"/>
      <point x="171" y="128" type="line" smooth="yes"/>
      <point x="171" y="55"/>
      <point x="232" y="-8"/>
    </contour>
  </outline>
</glyph>
<glyph name="u" format="1">
  <advance width="584"/>
  <unicode hex="0075"/>
  <outline>
    <contour>
      <point x="115" y="164" type="curve" smooth="yes"/>
      <point x="116" y="491" type="line"/>
      <point x="102" y="491" type="line"/>
      <point x="102" y="160" type="line" smooth="yes"/>
      <point x="102" y="72"/>
      <point x="164" y="-9"/>
      <point x="263" y="-9" type="curve" smooth="yes"/>
      <point x="351" y="-9"/>
      <point x="426" y="62"/>
      <point x="468" y="151" type="curve"/>
      <point x="468" y="0" type="line"/>
      <point x="482" y="0" type="line"/>
      <point x="482" y="491" type="line"/>
      <point x="468" y="491" type="line"/>
      <point x="468" y="187" type="line"/>
      <point x="431" y="89"/>
      <point x="359" y="4"/>
      <point x="266" y="4" type="curve" smooth="yes"/>
      <point x="174" y="4"/>
      <point x="115" y="80"/>
    </contour>
  </outline>
</glyph>
<glyph name="v" format="1">
  <advance width="555"/>
  <unicode hex="0076"/>
  <outline>
    <contour>
      <point x="48" y="533" type="line"/>
      <point x="70" y="533" type="line"/>
      <point x="261" y="21" type="line"/>
      <point x="474" y="533" type="line"/>
      <point x="496" y="533" type="line"/>
      <point x="273" y="0" type="line"/>
      <point x="252" y="0" type="line"/>
    </contour>
  </outline>
</glyph>
<glyph name="w" format="1">
  <advance width="927"/>
  <unicode hex="0077"/>
  <outline>
    <contour>
      <point x="66" y="533" type="line"/>
      <point x="88" y="533" type="line"/>
      <point x="275" y="20" type="line"/>
      <point x="447" y="533" type="line"/>
      <point x="469" y="533" type="line"/>
      <point x="627" y="21" type="line"/>
      <point x="847" y="533" type="line"/>
      <point x="870" y="533" type="line"/>
      <point x="639" y="0" type="line"/>
      <point x="618" y="0" type="line"/>
      <point x="458" y="499" type="line"/>
      <point x="290" y="0" type="line"/>
      <point x="268" y="0" type="line"/>
    </contour>
  </outline>
</glyph>
<glyph name="x" format="1">
  <advance width="558"/>
  <unicode hex="0078"/>
  <outline>
    <contour>
      <point x="102" y="491" type="line"/>
      <point x="274" y="256" type="line"/>
      <point x="61" y="0" type="line"/>
      <point x="75" y="0" type="line"/>
      <point x="283" y="245" type="line"/>
      <point x="462" y="0" type="line"/>
      <point x="476" y="0" type="line"/>
      <point x="289" y="255" type="line"/>
      <point x="291" y="259" type="line"/>
      <point x="480" y="491" type="line"/>
      <point x="466" y="491" type="line"/>
      <point x="405" y="416"/>
      <point x="342" y="342"/>
      <point x="281" y="266" type="curve"/>
      <point x="116" y="491" type="line"/>
    </contour>
  </outline>
</glyph>
<glyph name="y" format="1">
  <advance width="563"/>
  <unicode hex="0079"/>
  <outline>
    <contour>
      <point x="58" y="491" type="line"/>
      <point x="264" y="70" type="line"/>
      <point x="77" y="-285" type="line"/>
      <point x="91" y="-285" type="line"/>
      <point x="500" y="491" type="line"/>
      <point x="486" y="491" type="line"/>
      <point x="271" y="83" type="line"/>
      <point x="72" y="491" type="line"/>
    </contour>
  </outline>
</glyph>
<glyph name="z" format="1">
  <advance width="470"/>
  <unicode hex="007A"/>
  <outline>
    <contour>
      <point x="53" y="487" type="line"/>
      <point x="53" y="509" type="line"/>
      <point x="451" y="510" type="line"/>
      <point x="451" y="488" type="line"/>
      <point x="31" y="21" type="line"/>
      <point x="461" y="21" type="line"/>
      <point x="461" y="0" type="line"/>
      <point x="7" y="0" type="line"/>
      <point x="7" y="21" type="line"/>
      <point x="426" y="488" type="line"/>
    </contour>
  </outline>
</glyph>
<glyph name="bar" format="1">
  <advance width="54"/>
  <unicode hex="007C"/>
  <outline>
    <contour>
      <point x="14" y="847" type="line"/>
      <point x="36" y="847" type="line"/>
      <point x="36" y="535" type="line"/>
      <point x="14" y="535" type="line"/>
    </contour>
    <contour>
      <point x="14" y="1" type="line"/>
      <point x="14" y="532" type="line"/>
      <point x="36" y="532" type="line"/>
      <point x="36" y="1" type="line"/>
    </contour>
    <contour>
      <point x="14" y="-377" type="line"/>
      <point x="14" y="-1" type="line"/>
      <point x="36" y="-1" type="line"/>
      <point x="36" y="-377" type="line"/>
    </contour>
  </outline>
</glyph>
